<svg width="32" height="33" viewBox="0 0 32 33" fill="none" xmlns="http://www.w3.org/2000/svg">
<path d="M15.9736 0.666992C17.3907 0.667067 18.6189 1.22035 19.085 2.09766C19.2902 2.48417 19.3163 3.12861 19.2412 3.79199C19.2151 4.02284 19.1776 4.23638 19.1426 4.41406H12.8047C12.7697 4.23635 12.7312 4.02288 12.7051 3.79199C12.63 3.12849 12.657 2.48413 12.8623 2.09766C13.3284 1.22029 14.5565 0.666992 15.9736 0.666992Z" fill="#B12636" stroke="white" stroke-width="1.33333"/>
<mask id="mask0_196_109" style="mask-type:alpha" maskUnits="userSpaceOnUse" x="0" y="3" width="32" height="30">
<path d="M16 3.95086C24.5248 3.95086 31.333 10.2659 31.333 17.9352C31.3329 25.6045 24.5248 31.9196 16 31.9196C7.47523 31.9196 0.667114 25.6045 0.666992 17.9352C0.666992 10.2659 7.47515 3.95086 16 3.95086Z" fill="#D9D9D9" stroke="white" stroke-width="1.33333"/>
</mask>
<g mask="url(#mask0_196_109)">
<path d="M16 3.95086C24.5248 3.95086 31.333 10.2659 31.333 17.9352C31.3329 25.6045 24.5248 31.9196 16 31.9196C7.47523 31.9196 0.667114 25.6045 0.666992 17.9352C0.666992 10.2659 7.47515 3.95086 16 3.95086Z" fill="#B12636" stroke="white" stroke-width="1.33333"/>
<path d="M16 3.95086C24.5248 3.95086 31.333 10.2659 31.333 17.9352C31.3329 25.6045 24.5248 31.9196 16 31.9196C7.47523 31.9196 0.667114 25.6045 0.666992 17.9352C0.666992 10.2659 7.47515 3.95086 16 3.95086Z" stroke="white" stroke-width="1.33333"/>
<path d="M17.0087 6.39901L16.4764 8.53279L18.3976 7.47054L16.5611 8.68859L18.574 9.27794L16.509 8.86675L17.4344 10.7625L16.3506 8.9629L15.6464 11.0545L16.1786 8.92071L14.2574 9.98296L16.0939 8.7649L14.0811 8.17556L16.146 8.58675L15.2207 6.69104L16.3045 8.4906L17.0087 6.39901Z" fill="white"/>
<path d="M25.2816 10.1825L24.5782 11.4408L25.9652 11.0553L24.6042 11.5506L25.762 12.2124L24.5407 11.6546L24.791 12.9759L24.4248 11.6917L23.6211 12.8986L24.3245 11.6403L22.9375 12.0258L24.2985 11.5304L23.1407 10.8687L24.362 11.4265L24.1117 10.1052L24.4779 11.3894L25.2816 10.1825Z" fill="white"/>
<path d="M27.1229 23.0022L26.6229 23.9278L27.8721 23.7677L26.6611 24.0178L27.8274 24.6655L26.6147 24.0937L27.015 25.1698L26.5109 24.111L25.9107 24.9851L26.4106 24.0596L25.1614 24.2197L26.3725 23.9696L25.2061 23.3218L26.4189 23.8937L26.0186 22.8176L26.5226 23.8764L27.1229 23.0022Z" fill="white"/>
<path d="M6.27489 9.77018L6.73606 11.3652L8.00422 9.97731L6.88148 11.4373L8.96198 11.1035L6.91303 11.5732L8.58714 12.489L6.81222 11.6933L7.09927 13.3222L6.63811 11.7272L5.36995 13.115L6.49268 11.655L4.41219 11.9889L6.46114 11.5191L4.78703 10.6034L6.56195 11.399L6.27489 9.77018Z" fill="white"/>
<path d="M13.8212 23.7152L15.8412 30.9594L16.9538 23.4342L16.4975 30.9686L20.0188 23.8013L17.1175 31.1123L22.8074 24.7915L17.6588 31.3809L25.1296 26.3373L18.0845 31.756L26.8272 28.3333L18.3656 32.212L27.7843 30.6435L18.483 32.7179L27.9359 33.1104L18.4287 33.2393L27.2715 35.5661L18.2064 33.7405L25.8365 37.843L17.8312 34.1874L23.7286 39.7861L17.3287 34.5496L21.0916 41.2628L16.7331 34.8024L18.105 42.1727L16.085 34.9285L14.9725 42.4537L15.4287 34.9193L11.9074 42.0865L14.8087 34.7756L9.11879 41.0964L14.2675 34.507L6.79658 39.5506L13.8417 34.1319L5.09905 37.5546L13.5606 33.6759L4.14189 35.2444L13.4432 33.1699L3.99033 32.7775L13.4975 32.6486L4.65469 30.3218L13.7198 32.1474L6.0897 28.0449L14.095 31.7005L8.19757 26.1018L14.5976 31.3383L10.8346 24.625L15.1931 31.0855L13.8212 23.7152Z" fill="white"/>
</g>
</svg>
